<?xml version="1.0" encoding="UTF-8" standalone="no"?>
<svg
   width="210mm"
   height="297mm"
   viewBox="0 0 210 297"
   version="1.1"
   id="svg2680"
   sodipodi:docname="Doppler-Effect.svg"
   inkscape:version="1.1.1 (3bf5ae0d25, 2021-09-20)"
   xmlns:inkscape="http://www.inkscape.org/namespaces/inkscape"
   xmlns:sodipodi="http://sodipodi.sourceforge.net/DTD/sodipodi-0.dtd"
   xmlns="http://www.w3.org/2000/svg"
   xmlns:svg="http://www.w3.org/2000/svg"
   xmlns:rdf="http://www.w3.org/1999/02/22-rdf-syntax-ns#"
   xmlns:cc="http://creativecommons.org/ns#"
   xmlns:dc="http://purl.org/dc/elements/1.1/">
  <defs
     id="defs2674">
    <marker
       style="overflow:visible;"
       id="marker4709"
       refX="0.0"
       refY="0.0"
       orient="auto"
       inkscape:stockid="Arrow1Lend"
       inkscape:isstock="true">
      <path
         transform="scale(0.8) rotate(180) translate(12.5,0)"
         style="fill-rule:evenodd;stroke:#000000;stroke-width:1pt;stroke-opacity:1;fill:#000000;fill-opacity:1"
         d="M 0.0,0.0 L 5.0,-5.0 L -12.5,0.0 L 5.0,5.0 L 0.0,0.0 z "
         id="path4707" />
    </marker>
    <marker
       style="overflow:visible;"
       id="Arrow1Lend"
       refX="0.0"
       refY="0.0"
       orient="auto"
       inkscape:stockid="Arrow1Lend"
       inkscape:isstock="true">
      <path
         transform="scale(0.8) rotate(180) translate(12.5,0)"
         style="fill-rule:evenodd;stroke:#ff0000;stroke-width:1pt;stroke-opacity:1;fill:#ff0000;fill-opacity:1"
         d="M 0.0,0.0 L 5.0,-5.0 L -12.5,0.0 L 5.0,5.0 L 0.0,0.0 z "
         id="path1272" />
    </marker>
    <marker
       style="overflow:visible"
       id="Arrow1Lend-5"
       refX="0"
       refY="0"
       orient="auto"
       inkscape:stockid="Arrow1Lend"
       inkscape:isstock="true">
      <path
         transform="matrix(-0.8,0,0,-0.8,-10,0)"
         style="fill:#ff0000;fill-opacity:1;fill-rule:evenodd;stroke:#ff0000;stroke-width:1pt;stroke-opacity:1"
         d="M 0,0 5,-5 -12.5,0 5,5 Z"
         id="path1272-2" />
    </marker>
    <marker
       style="overflow:visible"
       id="Arrow1Lend-7"
       refX="0"
       refY="0"
       orient="auto"
       inkscape:stockid="Arrow1Lend"
       inkscape:isstock="true">
      <path
         transform="matrix(-0.8,0,0,-0.8,-10,0)"
         style="fill:#ff0000;fill-opacity:1;fill-rule:evenodd;stroke:#ff0000;stroke-width:1pt;stroke-opacity:1"
         d="M 0,0 5,-5 -12.5,0 5,5 Z"
         id="path1272-0" />
    </marker>
    <marker
       style="overflow:visible"
       id="Arrow1Lend-56"
       refX="0"
       refY="0"
       orient="auto"
       inkscape:stockid="Arrow1Lend"
       inkscape:isstock="true">
      <path
         transform="matrix(-0.8,0,0,-0.8,-10,0)"
         style="fill:#ff0000;fill-opacity:1;fill-rule:evenodd;stroke:#ff0000;stroke-width:1pt;stroke-opacity:1"
         d="M 0,0 5,-5 -12.5,0 5,5 Z"
         id="path1272-4" />
    </marker>
    <marker
       style="overflow:visible"
       id="Arrow1Lend-2"
       refX="0"
       refY="0"
       orient="auto"
       inkscape:stockid="Arrow1Lend"
       inkscape:isstock="true">
      <path
         transform="matrix(-0.8,0,0,-0.8,-10,0)"
         style="fill:#ff0000;fill-opacity:1;fill-rule:evenodd;stroke:#ff0000;stroke-width:1pt;stroke-opacity:1"
         d="M 0,0 5,-5 -12.5,0 5,5 Z"
         id="path1272-5" />
    </marker>
    <marker
       style="overflow:visible"
       id="Arrow1Lend-3"
       refX="0"
       refY="0"
       orient="auto"
       inkscape:stockid="Arrow1Lend"
       inkscape:isstock="true">
      <path
         transform="matrix(-0.8,0,0,-0.8,-10,0)"
         style="fill:#ff0000;fill-opacity:1;fill-rule:evenodd;stroke:#ff0000;stroke-width:1pt;stroke-opacity:1"
         d="M 0,0 5,-5 -12.5,0 5,5 Z"
         id="path1272-6" />
    </marker>
    <marker
       style="overflow:visible"
       id="Arrow1Lend-5-3"
       refX="0"
       refY="0"
       orient="auto"
       inkscape:stockid="Arrow1Lend"
       inkscape:isstock="true">
      <path
         transform="matrix(-0.8,0,0,-0.8,-10,0)"
         style="fill:#ff0000;fill-opacity:1;fill-rule:evenodd;stroke:#ff0000;stroke-width:1pt;stroke-opacity:1"
         d="M 0,0 5,-5 -12.5,0 5,5 Z"
         id="path1272-2-2" />
    </marker>
    <marker
       style="overflow:visible"
       id="Arrow1Lend-30"
       refX="0"
       refY="0"
       orient="auto"
       inkscape:stockid="Arrow1Lend"
       inkscape:isstock="true">
      <path
         transform="matrix(-0.8,0,0,-0.8,-10,0)"
         style="fill:#ff0000;fill-opacity:1;fill-rule:evenodd;stroke:#ff0000;stroke-width:1pt;stroke-opacity:1"
         d="M 0,0 5,-5 -12.5,0 5,5 Z"
         id="path1272-26" />
    </marker>
    <marker
       style="overflow:visible"
       id="Arrow1Lend-5-0"
       refX="0"
       refY="0"
       orient="auto"
       inkscape:stockid="Arrow1Lend"
       inkscape:isstock="true">
      <path
         transform="matrix(-0.8,0,0,-0.8,-10,0)"
         style="fill:#ff0000;fill-opacity:1;fill-rule:evenodd;stroke:#ff0000;stroke-width:1pt;stroke-opacity:1"
         d="M 0,0 5,-5 -12.5,0 5,5 Z"
         id="path1272-2-6" />
    </marker>
    <marker
       style="overflow:visible"
       id="Arrow1Lend-3-4"
       refX="0"
       refY="0"
       orient="auto"
       inkscape:stockid="Arrow1Lend"
       inkscape:isstock="true">
      <path
         transform="matrix(-0.8,0,0,-0.8,-10,0)"
         style="fill:#ff0000;fill-opacity:1;fill-rule:evenodd;stroke:#ff0000;stroke-width:1pt;stroke-opacity:1"
         d="M 0,0 5,-5 -12.5,0 5,5 Z"
         id="path1272-6-4" />
    </marker>
    <marker
       style="overflow:visible"
       id="Arrow1Lend-5-3-5"
       refX="0"
       refY="0"
       orient="auto"
       inkscape:stockid="Arrow1Lend"
       inkscape:isstock="true">
      <path
         transform="matrix(-0.8,0,0,-0.8,-10,0)"
         style="fill:#ff0000;fill-opacity:1;fill-rule:evenodd;stroke:#ff0000;stroke-width:1pt;stroke-opacity:1"
         d="M 0,0 5,-5 -12.5,0 5,5 Z"
         id="path1272-2-2-3" />
    </marker>
    <clipPath
       id="clipPath7423">
      <rect
         style="fill:none;fill-opacity:1;stroke:#ff0000;stroke-width:0.264999;stroke-miterlimit:3.9;stroke-dasharray:none;stroke-opacity:1"
         width="68.791664"
         height="31.75"
         x="121.70833"
         y="21.166666"
         id="rect4052" />
    </clipPath>
    <clipPath
       id="clipPath380">
      <rect
         style="fill:none;fill-opacity:1;stroke:#ff0000;stroke-width:0.264999;stroke-miterlimit:3.9;stroke-dasharray:none;stroke-opacity:1"
         width="63.5"
         height="52.916664"
         x="113.77084"
         y="18.520834"
         id="rect4142" />
    </clipPath>
    <clipPath
       id="clipPath4588">
      <rect
         style="fill:none;fill-opacity:1;stroke:#ff0000;stroke-width:0.264999;stroke-miterlimit:3.9;stroke-dasharray:none;stroke-opacity:1"
         width="55.5625"
         height="50.270832"
         x="119.0625"
         y="26.458332"
         id="rect4190" />
    </clipPath>
    <marker
       style="overflow:visible"
       id="marker4709-8"
       refX="0"
       refY="0"
       orient="auto"
       inkscape:stockid="Arrow1Lend"
       inkscape:isstock="true">
      <path
         transform="matrix(-0.8,0,0,-0.8,-10,0)"
         style="fill:#000000;fill-opacity:1;fill-rule:evenodd;stroke:#000000;stroke-width:1pt;stroke-opacity:1"
         d="M 0,0 5,-5 -12.5,0 5,5 Z"
         id="path4707-1" />
    </marker>
    <marker
       style="overflow:visible"
       id="marker4709-7"
       refX="0"
       refY="0"
       orient="auto"
       inkscape:stockid="Arrow1Lend"
       inkscape:isstock="true">
      <path
         transform="matrix(-0.8,0,0,-0.8,-10,0)"
         style="fill:#000000;fill-opacity:1;fill-rule:evenodd;stroke:#000000;stroke-width:1pt;stroke-opacity:1"
         d="M 0,0 5,-5 -12.5,0 5,5 Z"
         id="path4707-4" />
    </marker>
    <marker
       style="overflow:visible"
       id="marker4709-2"
       refX="0"
       refY="0"
       orient="auto"
       inkscape:stockid="Arrow1Lend"
       inkscape:isstock="true">
      <path
         transform="matrix(-0.8,0,0,-0.8,-10,0)"
         style="fill:#000000;fill-opacity:1;fill-rule:evenodd;stroke:#000000;stroke-width:1pt;stroke-opacity:1"
         d="M 0,0 5,-5 -12.5,0 5,5 Z"
         id="path4707-3" />
    </marker>
    <marker
       style="overflow:visible"
       id="marker4709-6"
       refX="0"
       refY="0"
       orient="auto"
       inkscape:stockid="Arrow1Lend"
       inkscape:isstock="true">
      <path
         transform="matrix(-0.8,0,0,-0.8,-10,0)"
         style="fill:#000000;fill-opacity:1;fill-rule:evenodd;stroke:#000000;stroke-width:1pt;stroke-opacity:1"
         d="M 0,0 5,-5 -12.5,0 5,5 Z"
         id="path4707-0" />
    </marker>
    <marker
       style="overflow:visible"
       id="marker4709-6-9"
       refX="0"
       refY="0"
       orient="auto"
       inkscape:stockid="Arrow1Lend"
       inkscape:isstock="true">
      <path
         transform="matrix(-0.8,0,0,-0.8,-10,0)"
         style="fill:#000000;fill-opacity:1;fill-rule:evenodd;stroke:#000000;stroke-width:1pt;stroke-opacity:1"
         d="M 0,0 5,-5 -12.5,0 5,5 Z"
         id="path4707-0-0" />
    </marker>
    <marker
       style="overflow:visible"
       id="marker4709-6-8"
       refX="0"
       refY="0"
       orient="auto"
       inkscape:stockid="Arrow1Lend"
       inkscape:isstock="true">
      <path
         transform="matrix(-0.8,0,0,-0.8,-10,0)"
         style="fill:#000000;fill-opacity:1;fill-rule:evenodd;stroke:#000000;stroke-width:1pt;stroke-opacity:1"
         d="M 0,0 5,-5 -12.5,0 5,5 Z"
         id="path4707-0-4" />
    </marker>
    <marker
       style="overflow:visible"
       id="marker4709-6-2"
       refX="0"
       refY="0"
       orient="auto"
       inkscape:stockid="Arrow1Lend"
       inkscape:isstock="true">
      <path
         transform="matrix(-0.8,0,0,-0.8,-10,0)"
         style="fill:#000000;fill-opacity:1;fill-rule:evenodd;stroke:#000000;stroke-width:1pt;stroke-opacity:1"
         d="M 0,0 5,-5 -12.5,0 5,5 Z"
         id="path4707-0-9" />
    </marker>
  </defs>
  <sodipodi:namedview
     id="base"
     pagecolor="#ffffff"
     bordercolor="#666666"
     borderopacity="1.0"
     inkscape:pageopacity="1"
     inkscape:pageshadow="2"
     inkscape:zoom="1.4"
     inkscape:cx="408.57143"
     inkscape:cy="260"
     inkscape:document-units="mm"
     inkscape:current-layer="layer1"
     inkscape:document-rotation="0"
     showgrid="true"
     inkscape:window-width="1920"
     inkscape:window-height="1094"
     inkscape:window-x="-11"
     inkscape:window-y="-11"
     inkscape:window-maximized="1"
     inkscape:pagecheckerboard="0">
    <inkscape:grid
       type="xygrid"
       id="grid2682" />
  </sodipodi:namedview>
  <metadata
     id="metadata2677">
    <rdf:RDF>
      <cc:Work
         rdf:about="">
        <dc:format>image/svg+xml</dc:format>
        <dc:type
           rdf:resource="http://purl.org/dc/dcmitype/StillImage" />
      </cc:Work>
    </rdf:RDF>
  </metadata>
  <g
     inkscape:label="レイヤー 1"
     inkscape:groupmode="layer"
     id="layer1">
    <path
       style="fill:#ff0000;stroke:#ff0000;stroke-width:0.26499999;stroke-linecap:butt;stroke-linejoin:miter;stroke-opacity:1;fill-opacity:1;stroke-miterlimit:3.9;stroke-dasharray:none;marker-end:url(#Arrow1Lend)"
       d="M 79.374999,23.8125 H 108.47917"
       id="path2684" />
    <path
       style="fill:#ff0000;fill-opacity:1;stroke:#ff0000;stroke-width:0.265;stroke-linecap:butt;stroke-linejoin:miter;stroke-miterlimit:3.9;stroke-dasharray:none;stroke-opacity:1;marker-end:url(#Arrow1Lend-5)"
       d="m 79.375,34.395833 h 29.10417"
       id="path2684-3" />
    <path
       style="fill:#ff0000;fill-opacity:1;stroke:#ff0000;stroke-width:0.265;stroke-linecap:butt;stroke-linejoin:miter;stroke-miterlimit:3.9;stroke-dasharray:none;stroke-opacity:1;marker-end:url(#Arrow1Lend-3)"
       d="m 79.375,44.979167 h 29.10417"
       id="path2684-2" />
    <path
       style="fill:#ff0000;fill-opacity:1;stroke:#ff0000;stroke-width:0.265;stroke-linecap:butt;stroke-linejoin:miter;stroke-miterlimit:3.9;stroke-dasharray:none;stroke-opacity:1;marker-end:url(#Arrow1Lend-5-3)"
       d="M 79.375001,55.5625 H 108.47917"
       id="path2684-3-9" />
    <path
       style="fill:#ff0000;fill-opacity:1;stroke:#ff0000;stroke-width:0.265;stroke-linecap:butt;stroke-linejoin:miter;stroke-miterlimit:3.9;stroke-dasharray:none;stroke-opacity:1;marker-end:url(#Arrow1Lend-30)"
       d="M 79.374994,66.145833 H 108.47917"
       id="path2684-32" />
    <path
       style="fill:none;fill-opacity:1;stroke:#000000;stroke-width:0.264999;stroke-miterlimit:3.9;stroke-dasharray:none;stroke-opacity:1"
       d="m 153.45833,21.166667 c -10e-4,0.54 -1.4482,1.081 -3.9089,1.621 -2.4607,0.541 -5.9033,1.081 -9.2953,1.622 -3.3921,0.54 -6.6864,1.081 -8.8994,1.622 -2.213,0.54 -3.31,1.081 -2.967,1.621 0.342,0.541 2.125,1.081 4.81,1.622 2.6851,0.54 6.2386,1.081 9.596,1.622 3.3574,0.54 6.4707,1.081 8.412,1.621 1.9414,0.541 2.6777,1.081 1.9954,1.622 -0.6824,0.54 -2.781,1.081 -5.6626,1.621 -2.8816,0.541 -6.5097,1.082 -9.798,1.622 -3.2878,0.541 -6.1888,1.081 -7.8388,1.622 -1.649,0.54 -2.018,1.081 -1.002,1.621 1.015,0.541 3.408,1.081 6.4562,1.622 3.0486,0.541 6.7141,1.081 9.8996,1.622 3.1854,0.54 5.8437,1.081 7.1843,1.621 1.3407,0.541 1.3381,1.081 0,1.622 -1.3381,0.54 -3.9999,1.081 -7.1843,1.622 -3.1845,0.54 -6.8498,1.081 -9.8996,1.621 -3.0502,0.541 -5.4382,1.081 -6.4562,1.622 -1.018,0.54 -0.645,1.081 1.002,1.621 1.647,0.541 4.551,1.082 7.8388,1.622 3.2876,0.541 6.915,1.081 9.798,1.622 2.883,0.54 4.9775,1.081 5.6626,1.621 0.685,0.541 -0.0563,1.081 -1.9954,1.622 -1.9391,0.541 -5.055,1.081 -8.412,1.622 -3.357,0.54 -6.9093,1.081 -9.596,1.621 -2.686,0.541 -4.465,1.081 -4.81,1.622 -0.345,0.54 0.756,1.081 2.967,1.622 2.211,0.54 5.5075,1.081 8.8994,1.621 3.3919,0.541 6.8327,1.081 9.2953,1.622 2.4626,0.54 3.9076,1.081 3.9089,1.622"
       title="cos(x)"
       id="path4699" />
    <path
       style="fill:none;stroke:#000000;stroke-width:0.265;stroke-linecap:butt;stroke-linejoin:miter;stroke-opacity:1;stroke-miterlimit:4;stroke-dasharray:none;marker-end:url(#marker4709)"
       d="m 153.45833,23.8125 -7.9375,2.645833"
       id="path4705" />
    <path
       style="fill:none;stroke:#000000;stroke-width:0.265;stroke-linecap:butt;stroke-linejoin:miter;stroke-miterlimit:4;stroke-dasharray:none;stroke-opacity:1;marker-end:url(#marker4709-8)"
       d="m 153.45833,37.041667 -7.9375,2.645833"
       id="path4705-8" />
    <path
       style="fill:none;stroke:#000000;stroke-width:0.265;stroke-linecap:butt;stroke-linejoin:miter;stroke-miterlimit:4;stroke-dasharray:none;stroke-opacity:1;marker-end:url(#marker4709-7)"
       d="m 153.45833,50.270833 -7.9375,2.645833"
       id="path4705-9" />
    <path
       style="fill:none;stroke:#000000;stroke-width:0.265;stroke-linecap:butt;stroke-linejoin:miter;stroke-miterlimit:4;stroke-dasharray:none;stroke-opacity:1;marker-end:url(#marker4709-2)"
       d="m 153.45833,63.5 -7.9375,2.645833"
       id="path4705-82" />
    <path
       style="fill:none;stroke:#000000;stroke-width:0.265;stroke-linecap:butt;stroke-linejoin:miter;stroke-miterlimit:4;stroke-dasharray:none;stroke-opacity:1;marker-end:url(#marker4709-6)"
       d="m 127,29.104167 7.48354,3.741774"
       id="path4705-1" />
    <path
       style="fill:none;stroke:#000000;stroke-width:0.265;stroke-linecap:butt;stroke-linejoin:miter;stroke-miterlimit:4;stroke-dasharray:none;stroke-opacity:1;marker-end:url(#marker4709-6-9)"
       d="m 127.45396,41.237393 7.48354,3.741774"
       id="path4705-1-3" />
    <path
       style="fill:none;stroke:#000000;stroke-width:0.265;stroke-linecap:butt;stroke-linejoin:miter;stroke-miterlimit:4;stroke-dasharray:none;stroke-opacity:1;marker-end:url(#marker4709-6-8)"
       d="m 127.45396,54.466559 7.48354,3.741774"
       id="path4705-1-6" />
    <path
       style="fill:none;stroke:#000000;stroke-width:0.265;stroke-linecap:butt;stroke-linejoin:miter;stroke-miterlimit:4;stroke-dasharray:none;stroke-opacity:1;marker-end:url(#marker4709-6-2)"
       d="M 127.45396,67.695726 134.9375,71.4375"
       id="path4705-1-61" />
    <circle
       style="font-variation-settings:normal;opacity:1;vector-effect:none;fill:#000000;fill-opacity:1;fill-rule:evenodd;stroke:none;stroke-width:0.127567;stroke-linecap:butt;stroke-linejoin:miter;stroke-miterlimit:4;stroke-dasharray:none;stroke-dashoffset:0;stroke-opacity:1;stop-color:#000000;stop-opacity:1"
       id="path6000"
       cx="122.74776"
       cy="28.064732"
       r="2.5513391" />
    <circle
       style="font-variation-settings:normal;vector-effect:none;fill:#ff8600;fill-opacity:1;fill-rule:evenodd;stroke:none;stroke-width:0.127567;stroke-linecap:butt;stroke-linejoin:miter;stroke-miterlimit:4;stroke-dasharray:none;stroke-dashoffset:0;stroke-opacity:1;stop-color:#000000"
       id="path6000-3"
       cx="156.95459"
       cy="48.85342"
       r="2.5513391" />
    <text
       xml:space="preserve"
       style="font-size:4.9389px;line-height:1.25;font-family:'Times New Roman';-inkscape-font-specification:'Times New Roman, Normal';letter-spacing:0px;stroke-width:0.264583"
       x="119.0625"
       y="21.166666"
       id="text6030"><tspan
         sodipodi:role="line"
         id="tspan6028"
         x="119.0625"
         y="21.166666"
         style="stroke-width:0.264583">(a)</tspan></text>
    <text
       xml:space="preserve"
       style="font-size:4.9389px;line-height:1.25;font-family:'Times New Roman';-inkscape-font-specification:'Times New Roman, Normal';letter-spacing:0px;stroke-width:0.264583"
       x="161.39583"
       y="47.625"
       id="text6034"><tspan
         sodipodi:role="line"
         id="tspan6032"
         x="161.39583"
         y="47.625"
         style="stroke-width:0.264583">(b)</tspan></text>
    <text
       xml:space="preserve"
       style="font-size:4.9389px;line-height:1.25;font-family:'Times New Roman';-inkscape-font-specification:'Times New Roman, Normal';letter-spacing:0px;stroke-width:0.264583"
       x="82.965775"
       y="19.276785"
       id="text6038"><tspan
         sodipodi:role="line"
         id="tspan6036"
         x="82.965775"
         y="19.276785"
         style="stroke-width:0.264583">レーザ光</tspan></text>
    <rect
       style="fill:none;fill-opacity:1;stroke:#000000;stroke-width:0.264999;stroke-miterlimit:4;stroke-dasharray:none;stroke-opacity:1"
       id="rect6040"
       width="100.54166"
       height="68.791664"
       x="71.4375"
       y="10.583333"
       inkscape:export-filename="C:\Users\ni4mo\Documents\diplom_thesis\theory\figure\DopplerEffect.png"
       inkscape:export-xdpi="300"
       inkscape:export-ydpi="300" />
  </g>
</svg>
