<?xml version="1.0" encoding="UTF-8" standalone="no"?>
<!-- Created with Inkscape (http://www.inkscape.org/) -->

<svg
   width="210mm"
   height="297mm"
   viewBox="0 0 744.09448819 1052.3622047"
   id="svg2"
   version="1.1"
   inkscape:version="1.1.1 (3bf5ae0d25, 2021-09-20)"
   sodipodi:docname="figure1.svg"
   xmlns:inkscape="http://www.inkscape.org/namespaces/inkscape"
   xmlns:sodipodi="http://sodipodi.sourceforge.net/DTD/sodipodi-0.dtd"
   xmlns:xlink="http://www.w3.org/1999/xlink"
   xmlns="http://www.w3.org/2000/svg"
   xmlns:svg="http://www.w3.org/2000/svg"
   xmlns:rdf="http://www.w3.org/1999/02/22-rdf-syntax-ns#"
   xmlns:cc="http://creativecommons.org/ns#"
   xmlns:dc="http://purl.org/dc/elements/1.1/">
  <defs
     id="defs4">
    <marker
       style="overflow:visible;"
       id="marker13113"
       refX="0.0"
       refY="0.0"
       orient="auto"
       inkscape:stockid="Arrow1Mend"
       inkscape:isstock="true">
      <path
         transform="scale(0.4) rotate(180) translate(10,0)"
         style="fill-rule:evenodd;fill:context-stroke;stroke:context-stroke;stroke-width:1.0pt;"
         d="M 0.0,0.0 L 5.0,-5.0 L -12.5,0.0 L 5.0,5.0 L 0.0,0.0 z "
         id="path13111" />
    </marker>
    <marker
       style="overflow:visible"
       id="marker13103"
       refX="0.0"
       refY="0.0"
       orient="auto"
       inkscape:stockid="Arrow1Mstart"
       inkscape:isstock="true">
      <path
         transform="scale(0.4) translate(10,0)"
         style="fill-rule:evenodd;fill:context-stroke;stroke:context-stroke;stroke-width:1.0pt"
         d="M 0.0,0.0 L 5.0,-5.0 L -12.5,0.0 L 5.0,5.0 L 0.0,0.0 z "
         id="path13101" />
    </marker>
    <marker
       style="overflow:visible;"
       id="marker9381"
       refX="0.0"
       refY="0.0"
       orient="auto"
       inkscape:stockid="Arrow1Lend"
       inkscape:isstock="true">
      <path
         transform="scale(0.8) rotate(180) translate(12.5,0)"
         style="fill-rule:evenodd;fill:context-stroke;stroke:context-stroke;stroke-width:1.0pt;"
         d="M 0.0,0.0 L 5.0,-5.0 L -12.5,0.0 L 5.0,5.0 L 0.0,0.0 z "
         id="path5335" />
    </marker>
    <marker
       style="overflow:visible;"
       id="Arrow1Mend"
       refX="0.0"
       refY="0.0"
       orient="auto"
       inkscape:stockid="Arrow1Mend"
       inkscape:isstock="true">
      <path
         transform="scale(0.4) rotate(180) translate(10,0)"
         style="fill-rule:evenodd;fill:context-stroke;stroke:context-stroke;stroke-width:1.0pt;"
         d="M 0.0,0.0 L 5.0,-5.0 L -12.5,0.0 L 5.0,5.0 L 0.0,0.0 z "
         id="path5341" />
    </marker>
    <marker
       style="overflow:visible"
       id="Arrow1Mstart"
       refX="0.0"
       refY="0.0"
       orient="auto"
       inkscape:stockid="Arrow1Mstart"
       inkscape:isstock="true">
      <path
         transform="scale(0.4) translate(10,0)"
         style="fill-rule:evenodd;fill:context-stroke;stroke:context-stroke;stroke-width:1.0pt"
         d="M 0.0,0.0 L 5.0,-5.0 L -12.5,0.0 L 5.0,5.0 L 0.0,0.0 z "
         id="path5338" />
    </marker>
    <marker
       inkscape:stockid="Arrow1Lend"
       orient="auto"
       refY="0.0"
       refX="0.0"
       id="marker4968"
       style="overflow:visible;"
       inkscape:isstock="true">
      <path
         id="path4970"
         d="M 0.0,0.0 L 5.0,-5.0 L -12.5,0.0 L 5.0,5.0 L 0.0,0.0 z "
         style="fill-rule:evenodd;stroke:#000000;stroke-width:1pt;stroke-opacity:1;fill:#000000;fill-opacity:1"
         transform="scale(0.8) rotate(180) translate(12.5,0)" />
    </marker>
    <marker
       inkscape:stockid="Arrow1Lstart"
       orient="auto"
       refY="0.0"
       refX="0.0"
       id="Arrow1Lstart"
       style="overflow:visible"
       inkscape:isstock="true">
      <path
         id="path4378"
         d="M 0.0,0.0 L 5.0,-5.0 L -12.5,0.0 L 5.0,5.0 L 0.0,0.0 z "
         style="fill-rule:evenodd;stroke:#000000;stroke-width:1pt;stroke-opacity:1;fill:#000000;fill-opacity:1"
         transform="scale(0.8) translate(12.5,0)" />
    </marker>
    <marker
       inkscape:stockid="Arrow1Lend"
       orient="auto"
       refY="0.0"
       refX="0.0"
       id="Arrow1Lend"
       style="overflow:visible;"
       inkscape:isstock="true">
      <path
         id="path4381"
         d="M 0.0,0.0 L 5.0,-5.0 L -12.5,0.0 L 5.0,5.0 L 0.0,0.0 z "
         style="fill-rule:evenodd;stroke:#000000;stroke-width:1pt;stroke-opacity:1;fill:#000000;fill-opacity:1"
         transform="scale(0.8) rotate(180) translate(12.5,0)" />
    </marker>
    <marker
       inkscape:stockid="Arrow1Lend"
       orient="auto"
       refY="0"
       refX="0"
       id="Arrow1Lend-4"
       style="overflow:visible"
       inkscape:isstock="true">
      <path
         inkscape:connector-curvature="0"
         id="path4381-1"
         d="M 0,0 5,-5 -12.5,0 5,5 0,0 Z"
         style="fill:#000000;fill-opacity:1;fill-rule:evenodd;stroke:#000000;stroke-width:1pt;stroke-opacity:1"
         transform="matrix(-0.8,0,0,-0.8,-10,0)" />
    </marker>
    <g
       id="g9865">
      <symbol
         overflow="visible"
         id="symbol7124">
        <path
           style="stroke:none;"
           d=""
           id="path1688" />
      </symbol>
      <symbol
         overflow="visible"
         id="symbol1911">
        <path
           style="stroke:none;"
           d="M 2.5 -6.921875 L 1.15625 -5.5625 L 1.328125 -5.390625 L 2.5 -6.40625 L 3.640625 -5.390625 L 3.8125 -5.5625 Z M 2.5 -6.921875 "
           id="path3285" />
      </symbol>
      <symbol
         overflow="visible"
         id="symbol6378">
        <path
           style="stroke:none;"
           d=""
           id="path3120" />
      </symbol>
      <symbol
         overflow="visible"
         id="symbol9341">
        <path
           style="stroke:none;"
           d="M 3.328125 -3.015625 C 3.390625 -3.265625 3.625 -4.1875 4.3125 -4.1875 C 4.359375 -4.1875 4.609375 -4.1875 4.8125 -4.0625 C 4.53125 -4 4.34375 -3.765625 4.34375 -3.515625 C 4.34375 -3.359375 4.453125 -3.171875 4.71875 -3.171875 C 4.9375 -3.171875 5.25 -3.34375 5.25 -3.75 C 5.25 -4.265625 4.671875 -4.40625 4.328125 -4.40625 C 3.75 -4.40625 3.40625 -3.875 3.28125 -3.65625 C 3.03125 -4.3125 2.5 -4.40625 2.203125 -4.40625 C 1.171875 -4.40625 0.59375 -3.125 0.59375 -2.875 C 0.59375 -2.765625 0.703125 -2.765625 0.71875 -2.765625 C 0.796875 -2.765625 0.828125 -2.796875 0.84375 -2.875 C 1.1875 -3.9375 1.84375 -4.1875 2.1875 -4.1875 C 2.375 -4.1875 2.71875 -4.09375 2.71875 -3.515625 C 2.71875 -3.203125 2.546875 -2.546875 2.1875 -1.140625 C 2.03125 -0.53125 1.671875 -0.109375 1.234375 -0.109375 C 1.171875 -0.109375 0.953125 -0.109375 0.734375 -0.234375 C 0.984375 -0.296875 1.203125 -0.5 1.203125 -0.78125 C 1.203125 -1.046875 0.984375 -1.125 0.84375 -1.125 C 0.53125 -1.125 0.296875 -0.875 0.296875 -0.546875 C 0.296875 -0.09375 0.78125 0.109375 1.21875 0.109375 C 1.890625 0.109375 2.25 -0.59375 2.265625 -0.640625 C 2.390625 -0.28125 2.75 0.109375 3.34375 0.109375 C 4.375 0.109375 4.9375 -1.171875 4.9375 -1.421875 C 4.9375 -1.53125 4.859375 -1.53125 4.828125 -1.53125 C 4.734375 -1.53125 4.71875 -1.484375 4.6875 -1.421875 C 4.359375 -0.34375 3.6875 -0.109375 3.375 -0.109375 C 2.984375 -0.109375 2.828125 -0.421875 2.828125 -0.765625 C 2.828125 -0.984375 2.875 -1.203125 2.984375 -1.640625 Z M 3.328125 -3.015625 "
           id="path2337" />
      </symbol>
    </g>
    <g
       id="g4594">
      <symbol
         overflow="visible"
         id="symbol925">
        <path
           style="stroke:none;"
           d=""
           id="path6892" />
      </symbol>
      <symbol
         overflow="visible"
         id="symbol7289">
        <path
           style="stroke:none;"
           d="M 2.5 -6.921875 L 1.15625 -5.5625 L 1.328125 -5.390625 L 2.5 -6.40625 L 3.640625 -5.390625 L 3.8125 -5.5625 Z M 2.5 -6.921875 "
           id="path1036" />
      </symbol>
      <symbol
         overflow="visible"
         id="symbol8052">
        <path
           style="stroke:none;"
           d=""
           id="path4605" />
      </symbol>
      <symbol
         overflow="visible"
         id="symbol6722">
        <path
           style="stroke:none;"
           d="M 4.84375 -3.796875 C 4.890625 -3.9375 4.890625 -3.953125 4.890625 -4.03125 C 4.890625 -4.203125 4.75 -4.296875 4.59375 -4.296875 C 4.5 -4.296875 4.34375 -4.234375 4.25 -4.09375 C 4.234375 -4.03125 4.140625 -3.734375 4.109375 -3.546875 C 4.03125 -3.296875 3.96875 -3.015625 3.90625 -2.75 L 3.453125 -0.953125 C 3.421875 -0.8125 2.984375 -0.109375 2.328125 -0.109375 C 1.828125 -0.109375 1.71875 -0.546875 1.71875 -0.921875 C 1.71875 -1.375 1.890625 -2 2.21875 -2.875 C 2.375 -3.28125 2.421875 -3.390625 2.421875 -3.59375 C 2.421875 -4.03125 2.109375 -4.40625 1.609375 -4.40625 C 0.65625 -4.40625 0.296875 -2.953125 0.296875 -2.875 C 0.296875 -2.765625 0.390625 -2.765625 0.40625 -2.765625 C 0.515625 -2.765625 0.515625 -2.796875 0.5625 -2.953125 C 0.84375 -3.890625 1.234375 -4.1875 1.578125 -4.1875 C 1.65625 -4.1875 1.828125 -4.1875 1.828125 -3.875 C 1.828125 -3.625 1.71875 -3.359375 1.65625 -3.171875 C 1.25 -2.109375 1.078125 -1.546875 1.078125 -1.078125 C 1.078125 -0.1875 1.703125 0.109375 2.296875 0.109375 C 2.6875 0.109375 3.015625 -0.0625 3.296875 -0.34375 C 3.171875 0.171875 3.046875 0.671875 2.65625 1.203125 C 2.390625 1.53125 2.015625 1.828125 1.5625 1.828125 C 1.421875 1.828125 0.96875 1.796875 0.796875 1.40625 C 0.953125 1.40625 1.09375 1.40625 1.21875 1.28125 C 1.328125 1.203125 1.421875 1.0625 1.421875 0.875 C 1.421875 0.5625 1.15625 0.53125 1.0625 0.53125 C 0.828125 0.53125 0.5 0.6875 0.5 1.171875 C 0.5 1.671875 0.9375 2.046875 1.5625 2.046875 C 2.578125 2.046875 3.609375 1.140625 3.890625 0.015625 Z M 4.84375 -3.796875 "
           id="path3200" />
      </symbol>
    </g>
    <g
       id="g3818">
      <symbol
         overflow="visible"
         id="symbol5478">
        <path
           style="stroke:none;"
           d=""
           id="path5351" />
      </symbol>
      <symbol
         overflow="visible"
         id="symbol4607">
        <path
           style="stroke:none;"
           d="M 2.5 -6.921875 L 1.15625 -5.5625 L 1.328125 -5.390625 L 2.5 -6.40625 L 3.640625 -5.390625 L 3.8125 -5.5625 Z M 2.5 -6.921875 "
           id="path8646" />
      </symbol>
      <symbol
         overflow="visible"
         id="symbol1653">
        <path
           style="stroke:none;"
           d=""
           id="path7436" />
      </symbol>
      <symbol
         overflow="visible"
         id="symbol7302">
        <path
           style="stroke:none;"
           d="M 1.328125 -0.828125 C 1.859375 -1.40625 2.15625 -1.65625 2.515625 -1.96875 C 2.515625 -1.96875 3.125 -2.5 3.484375 -2.859375 C 4.4375 -3.78125 4.65625 -4.265625 4.65625 -4.3125 C 4.65625 -4.40625 4.5625 -4.40625 4.546875 -4.40625 C 4.46875 -4.40625 4.453125 -4.390625 4.390625 -4.296875 C 4.09375 -3.8125 3.890625 -3.65625 3.65625 -3.65625 C 3.40625 -3.65625 3.296875 -3.8125 3.140625 -3.984375 C 2.953125 -4.203125 2.78125 -4.40625 2.453125 -4.40625 C 1.703125 -4.40625 1.25 -3.484375 1.25 -3.265625 C 1.25 -3.21875 1.28125 -3.15625 1.359375 -3.15625 C 1.453125 -3.15625 1.46875 -3.203125 1.5 -3.265625 C 1.6875 -3.734375 2.265625 -3.734375 2.34375 -3.734375 C 2.546875 -3.734375 2.734375 -3.671875 2.96875 -3.59375 C 3.375 -3.4375 3.484375 -3.4375 3.734375 -3.4375 C 3.375 -3.015625 2.546875 -2.296875 2.359375 -2.140625 L 1.453125 -1.296875 C 0.78125 -0.625 0.421875 -0.0625 0.421875 0.015625 C 0.421875 0.109375 0.53125 0.109375 0.546875 0.109375 C 0.625 0.109375 0.640625 0.09375 0.703125 -0.015625 C 0.9375 -0.375 1.234375 -0.640625 1.5625 -0.640625 C 1.78125 -0.640625 1.890625 -0.546875 2.140625 -0.265625 C 2.296875 -0.046875 2.484375 0.109375 2.765625 0.109375 C 3.765625 0.109375 4.34375 -1.15625 4.34375 -1.421875 C 4.34375 -1.46875 4.296875 -1.53125 4.21875 -1.53125 C 4.125 -1.53125 4.109375 -1.46875 4.078125 -1.390625 C 3.84375 -0.75 3.203125 -0.5625 2.875 -0.5625 C 2.6875 -0.5625 2.5 -0.625 2.296875 -0.6875 C 1.953125 -0.8125 1.796875 -0.859375 1.59375 -0.859375 C 1.578125 -0.859375 1.421875 -0.859375 1.328125 -0.828125 Z M 1.328125 -0.828125 "
           id="path6328" />
      </symbol>
    </g>
  </defs>
  <sodipodi:namedview
     id="base"
     pagecolor="#ffffff"
     bordercolor="#666666"
     borderopacity="1.0"
     inkscape:pageopacity="1"
     inkscape:pageshadow="2"
     inkscape:zoom="1.979899"
     inkscape:cx="523.25902"
     inkscape:cy="203.79828"
     inkscape:document-units="px"
     inkscape:current-layer="layer1"
     showgrid="true"
     inkscape:snap-intersection-paths="true"
     inkscape:object-nodes="true"
     inkscape:window-width="1920"
     inkscape:window-height="1094"
     inkscape:window-x="-11"
     inkscape:window-y="-11"
     inkscape:window-maximized="1"
     inkscape:pagecheckerboard="0"
     inkscape:snap-smooth-nodes="true">
    <inkscape:grid
       type="xygrid"
       id="grid4136" />
  </sodipodi:namedview>
  <metadata
     id="metadata7">
    <rdf:RDF>
      <cc:Work
         rdf:about="">
        <dc:format>image/svg+xml</dc:format>
        <dc:type
           rdf:resource="http://purl.org/dc/dcmitype/StillImage" />
      </cc:Work>
    </rdf:RDF>
  </metadata>
  <g
     inkscape:label="レイヤー 1"
     inkscape:groupmode="layer"
     id="layer1">
    <path
       style="opacity:0.97;fill:none;fill-opacity:1;fill-rule:nonzero;stroke:#000000;stroke-width:2.5;stroke-linecap:round;stroke-linejoin:miter;stroke-miterlimit:4;stroke-dasharray:none;stroke-dashoffset:0;stroke-opacity:1"
       id="path4138"
       sodipodi:type="arc"
       sodipodi:cx="465.00024"
       sodipodi:cy="128.83273"
       sodipodi:rx="15"
       sodipodi:ry="15"
       sodipodi:start="0"
       sodipodi:end="6.2776701"
       sodipodi:open="true"
       d="m 480.00024,128.83273 a 15,15 0 0 1 -14.97931,14.99999 15,15 0 0 1 -15.02063,-14.95862 15,15 0 0 1 14.9379,-15.04124 15,15 0 0 1 15.06182,14.91715"
       sodipodi:arc-type="arc" />
    <path
       style="opacity:0.97;fill:none;fill-opacity:1;fill-rule:nonzero;stroke:#000000;stroke-width:2.5;stroke-linecap:round;stroke-linejoin:miter;stroke-miterlimit:4;stroke-dasharray:none;stroke-dashoffset:0;stroke-opacity:1"
       id="path4138-4"
       sodipodi:type="arc"
       sodipodi:cx="575.00024"
       sodipodi:cy="128.83273"
       sodipodi:rx="15"
       sodipodi:ry="15"
       sodipodi:start="0"
       sodipodi:end="6.2776701"
       sodipodi:open="true"
       d="m 590.00024,128.83273 a 15,15 0 0 1 -14.97931,14.99999 15,15 0 0 1 -15.02063,-14.95862 15,15 0 0 1 14.9379,-15.04124 15,15 0 0 1 15.06182,14.91715"
       sodipodi:arc-type="arc" />
    <path
       style="opacity:0.97;fill:none;fill-opacity:1;fill-rule:nonzero;stroke:#000000;stroke-width:2.5;stroke-linecap:round;stroke-linejoin:miter;stroke-miterlimit:4;stroke-dasharray:none;stroke-dashoffset:0;stroke-opacity:1"
       id="path4138-6"
       sodipodi:type="arc"
       sodipodi:cx="465.00027"
       sodipodi:cy="228.83273"
       sodipodi:rx="15"
       sodipodi:ry="15"
       sodipodi:start="0"
       sodipodi:end="6.2776701"
       sodipodi:open="true"
       d="m 480.00027,228.83273 a 15,15 0 0 1 -14.97931,14.99999 15,15 0 0 1 -15.02063,-14.95862 15,15 0 0 1 14.9379,-15.04124 15,15 0 0 1 15.06182,14.91715"
       sodipodi:arc-type="arc" />
    <path
       style="opacity:0.97;fill:none;fill-opacity:1;fill-rule:nonzero;stroke:#000000;stroke-width:2.5;stroke-linecap:round;stroke-linejoin:miter;stroke-miterlimit:4;stroke-dasharray:none;stroke-dashoffset:0;stroke-opacity:1"
       id="path4138-4-4"
       sodipodi:type="arc"
       sodipodi:cx="575.00024"
       sodipodi:cy="228.83273"
       sodipodi:rx="15"
       sodipodi:ry="15"
       sodipodi:start="0"
       sodipodi:end="6.2776701"
       sodipodi:open="true"
       d="m 590.00024,228.83273 a 15,15 0 0 1 -14.97931,14.99999 15,15 0 0 1 -15.02063,-14.95862 15,15 0 0 1 14.9379,-15.04124 15,15 0 0 1 15.06182,14.91715"
       sodipodi:arc-type="arc" />
    <text
       xml:space="preserve"
       style="font-style:normal;font-variant:normal;font-weight:normal;font-stretch:normal;line-height:0%;font-family:'Times New Roman';-inkscape-font-specification:'Times New Roman, Normal';text-align:start;letter-spacing:0px;word-spacing:0px;writing-mode:lr-tb;text-anchor:start;fill:#000000;fill-opacity:1;stroke:none;stroke-width:1px;stroke-linecap:butt;stroke-linejoin:miter;stroke-opacity:1"
       x="461.29184"
       y="109.97803"
       id="text4173"><tspan
         sodipodi:role="line"
         id="tspan4175"
         x="461.29184"
         y="109.97803"
         style="font-size:17.5px;line-height:1.25">4</tspan></text>
    <text
       xml:space="preserve"
       style="font-style:normal;font-variant:normal;font-weight:normal;font-stretch:normal;line-height:0%;font-family:'Times New Roman';-inkscape-font-specification:'Times New Roman, Normal';text-align:start;letter-spacing:0px;word-spacing:0px;writing-mode:lr-tb;text-anchor:start;fill:#000000;fill-opacity:1;stroke:none;stroke-width:1px;stroke-linecap:butt;stroke-linejoin:miter;stroke-opacity:1"
       x="572.50427"
       y="208.30116"
       id="text4177"><tspan
         sodipodi:role="line"
         id="tspan4179"
         x="572.50427"
         y="208.30116"
         style="font-size:17.5px;line-height:1.25">2</tspan></text>
    <text
       xml:space="preserve"
       style="font-style:normal;font-variant:normal;font-weight:normal;font-stretch:normal;line-height:0%;font-family:'Times New Roman';-inkscape-font-specification:'Times New Roman, Normal';text-align:start;letter-spacing:0px;word-spacing:0px;writing-mode:lr-tb;text-anchor:start;fill:#000000;fill-opacity:1;stroke:none;stroke-width:1px;stroke-linecap:butt;stroke-linejoin:miter;stroke-opacity:1"
       x="571.79004"
       y="108.07594"
       id="text4181"><tspan
         sodipodi:role="line"
         id="tspan4183"
         x="571.79004"
         y="108.07594"
         style="font-size:17.5px;line-height:1.25">3</tspan></text>
    <text
       xml:space="preserve"
       style="font-style:normal;font-variant:normal;font-weight:normal;font-stretch:normal;line-height:0%;font-family:'Times New Roman';-inkscape-font-specification:'Times New Roman, Normal';text-align:start;letter-spacing:0px;word-spacing:0px;writing-mode:lr-tb;text-anchor:start;fill:#000000;fill-opacity:1;stroke:none;stroke-width:1px;stroke-linecap:butt;stroke-linejoin:miter;stroke-opacity:1"
       x="462.02219"
       y="208.06844"
       id="text4185"><tspan
         sodipodi:role="line"
         id="tspan4187"
         x="462.02219"
         y="208.06844"
         style="font-size:17.5px;line-height:1.25">1</tspan></text>
    <text
       xml:space="preserve"
       style="font-style:normal;font-variant:normal;font-weight:normal;font-stretch:normal;line-height:0%;font-family:'Times New Roman';-inkscape-font-specification:'Times New Roman, Normal';text-align:start;letter-spacing:0px;word-spacing:0px;writing-mode:lr-tb;text-anchor:start;fill:#000000;fill-opacity:1;stroke:none;stroke-width:1px;stroke-linecap:butt;stroke-linejoin:miter;stroke-opacity:1"
       x="317.50351"
       y="275.72476"
       id="text4211-7"><tspan
         sodipodi:role="line"
         id="tspan4213-4"
         x="317.50351"
         y="275.72476"
         style="font-size:17.5px;line-height:1.25">V<tspan
   style="font-size:65%;baseline-shift:sub"
   id="tspan4217-5">0</tspan> cos(Ω<tspan
   style="font-size:65%;baseline-shift:sub"
   id="tspan2311">rf</tspan>t)</tspan></text>
    <path
       style="opacity:0.97;fill:none;fill-opacity:1;fill-rule:nonzero;stroke:#000000;stroke-width:2.5;stroke-linecap:round;stroke-linejoin:miter;stroke-miterlimit:4;stroke-dasharray:none;stroke-dashoffset:0;stroke-opacity:1"
       id="path4660"
       sodipodi:type="arc"
       sodipodi:cx="520"
       sodipodi:cy="178.75"
       sodipodi:rx="10"
       sodipodi:ry="10"
       sodipodi:start="0"
       sodipodi:end="6.2776701"
       sodipodi:open="true"
       d="m 530,178.75 a 10,10 0 0 1 -9.98621,9.99999 10,10 0 0 1 -10.01375,-9.97241 10,10 0 0 1 9.9586,-10.02749 10,10 0 0 1 10.04121,9.94476"
       sodipodi:arc-type="arc" />
    <text
       xml:space="preserve"
       style="font-style:normal;font-variant:normal;font-weight:normal;font-stretch:normal;line-height:0%;font-family:'Times New Roman';-inkscape-font-specification:'Times New Roman, Normal';text-align:start;letter-spacing:0px;word-spacing:0px;writing-mode:lr-tb;text-anchor:start;fill:#000000;fill-opacity:1;stroke:none;stroke-width:1px;stroke-linecap:butt;stroke-linejoin:miter;stroke-opacity:1"
       x="489.28574"
       y="162.32141"
       id="text4677"><tspan
         sodipodi:role="line"
         id="tspan4679"
         x="489.28574"
         y="162.32141"
         style="font-size:17.5px;line-height:1.25">trap axis</tspan></text>
    <path
       style="fill:none;stroke:#000000;stroke-width:0.9375px;stroke-linecap:butt;stroke-linejoin:miter;stroke-opacity:1;marker-start:url(#Arrow1Mstart);marker-end:url(#Arrow1Mend)"
       d="m 520.3125,178.125 42.1875,37.5"
       id="path5330" />
    <text
       xml:space="preserve"
       style="font-size:22.5px;line-height:1.25;font-family:'Times New Roman';-inkscape-font-specification:'Times New Roman, Normal';stroke-width:0.9375"
       x="539.0625"
       y="192.1875"
       id="text7738"><tspan
         sodipodi:role="line"
         id="tspan7736"
         style="stroke-width:0.9375"
         x="539.0625"
         y="192.1875">R</tspan></text>
    <circle
       style="opacity:1;fill:none;stroke:#000000;stroke-width:1.66406;stroke-miterlimit:4;stroke-dasharray:none;stroke-dashoffset:0;stroke-opacity:1"
       id="path8728"
       cx="417.1875"
       cy="281.25"
       r="9.375" />
    <path
       style="fill:none;stroke:#000000;stroke-width:0.9375px;stroke-linecap:butt;stroke-linejoin:miter;stroke-opacity:1"
       d="m 412.217,281.97385 c 4.6875,-15 4.6875,11.25 9.375,0"
       id="path8923"
       sodipodi:nodetypes="cc" />
    <path
       style="fill:none;stroke:#000000;stroke-width:0.9375;stroke-linecap:butt;stroke-linejoin:miter;stroke-opacity:1;stroke-miterlimit:4;stroke-dasharray:none"
       d="m 426.5625,295.3125 h 37.5 V 243.75"
       id="path9285" />
    <path
       style="fill:none;stroke:#000000;stroke-width:0.9375px;stroke-linecap:butt;stroke-linejoin:miter;stroke-opacity:1"
       d="m 464.0625,295.3125 h 150 l 0,-164.0625"
       id="path9322"
       sodipodi:nodetypes="ccc" />
    <path
       style="fill:none;stroke:#000000;stroke-width:0.9375px;stroke-linecap:butt;stroke-linejoin:miter;stroke-opacity:1"
       d="m 590.625,131.25 h 23.4375"
       id="path9376" />
    <path
       style="fill:none;stroke:#000000;stroke-width:0.9375px;stroke-linecap:butt;stroke-linejoin:miter;stroke-opacity:1;marker-end:url(#marker9381)"
       d="m 614.0625,192.1875 h 28.125 v 18.75"
       id="path9378" />
    <text
       xml:space="preserve"
       style="font-size:22.5px;line-height:1.25;font-family:'Times New Roman';-inkscape-font-specification:'Times New Roman, Normal';stroke-width:0.9375"
       x="621.42859"
       y="234.375"
       id="text10667"><tspan
         sodipodi:role="line"
         id="tspan10665"
         style="stroke-width:0.9375"
         x="621.42859"
         y="234.375">GND</tspan></text>
    <circle
       style="opacity:1;fill:#000000;fill-opacity:1;stroke:#000000;stroke-width:0.998436;stroke-miterlimit:4;stroke-dasharray:none;stroke-dashoffset:0;stroke-opacity:1"
       id="path11605"
       cx="464.0625"
       cy="295.3125"
       r="2.8125012" />
    <circle
       style="fill:#000000;fill-opacity:1;stroke:#000000;stroke-width:0.998436;stroke-miterlimit:4;stroke-dasharray:none;stroke-dashoffset:0;stroke-opacity:1"
       id="path11605-2"
       cx="440.625"
       cy="262.5"
       r="2.8125012" />
    <path
       style="fill:none;stroke:#000000;stroke-width:0.9375px;stroke-linecap:butt;stroke-linejoin:miter;stroke-opacity:1"
       d="m 426.5625,295.3125 h -9.375 v -4.6875"
       id="path11793" />
    <circle
       style="fill:#000000;fill-opacity:1;stroke:#000000;stroke-width:0.998436;stroke-miterlimit:4;stroke-dasharray:none;stroke-dashoffset:0;stroke-opacity:1"
       id="path11605-6"
       cx="614.0625"
       cy="192.1875"
       r="2.8125012" />
    <path
       style="fill:none;stroke:#000000;stroke-width:0.9375px;stroke-linecap:butt;stroke-linejoin:miter;stroke-opacity:1"
       d="M 417.1875,271.875 V 262.5 h 159.375 v -18.75"
       id="path12295" />
    <path
       style="fill:none;stroke:#000000;stroke-width:0.9375px;stroke-linecap:butt;stroke-linejoin:miter;stroke-opacity:1"
       d="M 440.625,262.5 V 126.5625 H 450"
       id="path12297" />
    <path
       style="fill:none;stroke:#000000;stroke-width:0.9375px;stroke-linecap:butt;stroke-linejoin:miter;stroke-opacity:1;marker-start:url(#marker13103);marker-end:url(#marker13113)"
       d="M 628.125,98.4375 651.5625,121.875 675,98.4375"
       id="path12514" />
    <circle
       style="opacity:1;fill:none;fill-opacity:1;stroke:#000000;stroke-width:0.9375;stroke-miterlimit:4;stroke-dasharray:none;stroke-dashoffset:0;stroke-opacity:1"
       id="path12618"
       cx="651.5625"
       cy="121.875"
       r="9.375" />
    <path
       style="fill:none;stroke:#000000;stroke-width:0.9375px;stroke-linecap:butt;stroke-linejoin:miter;stroke-opacity:1"
       d="M 651.5625,121.875 645,128.4375"
       id="path12884"
       sodipodi:nodetypes="cc" />
    <path
       style="fill:none;stroke:#000000;stroke-width:0.9375px;stroke-linecap:butt;stroke-linejoin:miter;stroke-opacity:1"
       d="m 651.5625,121.875 6.5625,6.5625"
       id="path12886" />
    <text
       xml:space="preserve"
       style="font-size:22.5px;line-height:1.25;font-family:'Times New Roman';-inkscape-font-specification:'Times New Roman, Normal';stroke-width:0.9375"
       x="618.75"
       y="93.75"
       id="text14767"><tspan
         sodipodi:role="line"
         id="tspan14765"
         style="stroke-width:0.9375"
         x="618.75"
         y="93.75" /></text>
    <g
       inkscape:label=""
       transform="matrix(2.1666667,0,0,2.1666667,417.45575,-80.436102)"
       id="g17295">
      <g
         id="g7725">
        <g
           style="fill:#000000;fill-opacity:1"
           id="g2674">
          <use
             xlink:href="#symbol1911"
             x="92.557999"
             y="81.962997"
             id="use7822"
             width="100%"
             height="100%" />
        </g>
        <g
           style="fill:#000000;fill-opacity:1"
           id="g9545">
          <use
             xlink:href="#symbol9341"
             x="91.925003"
             y="81.962997"
             id="use5824"
             width="100%"
             height="100%" />
        </g>
      </g>
    </g>
    <g
       inkscape:label=""
       transform="matrix(1.8399701,0,0,1.8399701,508.08325,-53.193016)"
       id="g27557">
      <g
         id="g685">
        <g
           style="fill:#000000;fill-opacity:1"
           id="g8675">
          <use
             xlink:href="#symbol7289"
             x="92.609001"
             y="81.962997"
             id="use3412"
             width="100%"
             height="100%" />
        </g>
        <g
           style="fill:#000000;fill-opacity:1"
           id="g6367">
          <use
             xlink:href="#symbol6722"
             x="91.925003"
             y="81.962997"
             id="use8752"
             width="100%"
             height="100%" />
        </g>
      </g>
    </g>
    <g
       inkscape:label=""
       transform="matrix(2.1428571,0,0,2.1428571,461.78214,-33.671997)"
       id="g27799">
      <g
         id="g4806">
        <g
           style="fill:#000000;fill-opacity:1"
           id="g1409">
          <use
             xlink:href="#symbol4607"
             x="92.524002"
             y="81.962997"
             id="use5820"
             width="100%"
             height="100%" />
        </g>
        <g
           style="fill:#000000;fill-opacity:1"
           id="g8384">
          <use
             xlink:href="#symbol7302"
             x="91.925003"
             y="81.962997"
             id="use5055"
             width="100%"
             height="100%" />
        </g>
      </g>
    </g>
    <rect
       style="opacity:1;fill:none;fill-opacity:1;stroke:#000000;stroke-width:0.9375;stroke-miterlimit:4;stroke-dasharray:none;stroke-dashoffset:0;stroke-opacity:1"
       id="rect27859"
       width="412.5"
       height="257.8125"
       x="300"
       y="56.25"
       inkscape:export-filename="C:\Users\ni4mo\Documents\diplom_thesis\theory\figure\figure1b.png"
       inkscape:export-xdpi="300"
       inkscape:export-ydpi="300" />
  </g>
</svg>
